PathFileType	4	(X/Y/Z)	D:\walkingproject\041602jb\041602jb1.trc																																																																																		
DataRate	CameraRate	NumFrames	NumMarkers	Units	OrigDataRate	OrigDataStartFrame	OrigNumFrames																																																																														
120	120	15	28	mm	120	211	240																																																																														
Frame#	Time	head vertex			right ear			left ear			r scapula			right shoulder			left shoulder			sacrum			right elbow			right wrist			left elbow			left wrist			right g. trochanter			rigth mid-thigh			right knee			right tibia			right ankle			right heel			right mth			left g. trochanter			left mid-thigh			left knee			left tibia			left ankle			left heel			left mth			slider			fixed 1			fixed 2		
		X1	Y1	Z1	X2	Y2	Z2	X3	Y3	Z3	X4	Y4	Z4	X5	Y5	Z5	X6	Y6	Z6	X7	Y7	Z7	X8	Y8	Z8	X9	Y9	Z9	X10	Y10	Z10	X11	Y11	Z11	X12	Y12	Z12	X13	Y13	Z13	X14	Y14	Z14	X15	Y15	Z15	X16	Y16	Z16	X17	Y17	Z17	X18	Y18	Z18	X19	Y19	Z19	X20	Y20	Z20	X21	Y21	Z21	X22	Y22	Z22	X23	Y23	Z23	X24	Y24	Z24	X25	Y25	Z25	X26	Y26	Z26	X27	Y27	Z27	X28	Y28	Z28
																																																																																					
211	1.75	351.36087	247.23305	1728.0603	405.27338	150.79582	1622.65466	402.82858	362.87354	1634.21948	239.02199	177.63841	1331.88599	385.23218	15.95255	1345.87561	384.66891	498.366	1365.58301	290.60846	257.22324	985.52106	387.95456	-30.61852	1111.70276	618.31635	21.32809	1156.42126	416.07886	543.57025	1102.61133	620.25763	458.98657	1158.48718	430.99924	56.2784	879.86182				359.49329	80.6213	478.91141	389.74646	134.73021	228.75128	343.81305	123.35787	95.28453	255.05458	164.73804	38.36623	452.38889	83.77427	13.14709	449.55029	456.44562	867.12585				380.07816	419.48083	482.25742	410.12378	389.87354	336.89655	336.18735	371.80756	92.32047	259.88281	324.29709	36.56703	447.66922	415.13538	2.67758	965.91101	-21.14479	9.93127	1955.65491	-11.8066	-14.00936	-4.60406	1.00681	9.24365
212	1.758	351.36087	247.23305	1728.0603	405.27338	150.79582	1622.65466	403.08853	362.86026	1634.20068	239.02199	177.63841	1331.88599	385.80338	16.28273	1345.99915	384.66891	498.366	1365.58301	291.26981	257.02719	984.76843	387.95456	-30.61852	1111.70276	618.31635	21.32809	1156.42126	416.45905	543.57147	1102.35071	620.25763	458.98657	1158.48718	430.99924	56.2784	879.86182				359.49329	80.6213	478.91141	389.74646	134.73021	228.75128	343.81305	123.35787	95.28453	255.05458	164.73804	38.36623	452.38889	83.77427	13.14709	449.55029	456.44562	867.12585				380.13541	418.87823	481.87659	410.38239	390.2991	336.64688	336.18735	371.80756	92.32047	260.23984	324.35254	36.48975	448.19611	414.83151	2.56801	965.91101	-21.14479	9.93127	1955.65491	-11.8066	-14.00936	-4.2835	0.95118	8.9866
213	1.767	351.26639	247.2916	1727.89355	405.27338	150.79582	1622.65466	403.00021	363.29861	1634.43823	239.02199	177.63841	1331.88599	385.78473	15.81947	1346.03333	384.66891	498.366	1365.58301	291.26981	257.02719	984.76843	387.95456	-30.61852	1111.70276	618.31635	21.32809	1156.42126	416.45905	543.57147	1102.35071	620.25763	458.98657	1158.48718	430.99924	56.2784	879.86182				359.49329	80.6213	478.91141	389.74646	134.73021	228.75128	343.81305	123.35787	95.28453	254.62366	164.9234	38.2872	452.38889	83.77427	13.14709	449.55029	456.44562	867.12585				380.24588	419.32187	482.53635	410.38239	390.2991	336.64688	336.18735	371.80756	92.32047	260.23984	324.35254	36.48975	448.19611	414.83151	2.56801	965.67474	-21.40953	9.74698	1955.65491	-11.8066	-14.00936	-4.60406	1.00681	9.24365
214	1.775	351.26639	247.2916	1727.89355	405.27338	150.79582	1622.65466	403.00021	363.29861	1634.43823	239.02199	177.63841	1331.88599	385.78473	15.81947	1346.03333	384.66891	498.366	1365.58301	291.26981	257.02719	984.76843	387.95456	-30.61852	1111.70276	618.31635	21.32809	1156.42126	416.0864	543.60382	1102.17627	620.69159	457.91299	1157.88464	430.99924	56.2784	879.86182				359.49329	80.6213	478.91141	389.74646	134.73021	228.75128	343.81305	123.35787	95.28453	255.02554	165.02025	38.16899	452.38889	83.77427	13.14709	448.8219	456.50833	867.03619				379.96445	419.37317	482.24808	410.38239	390.2991	336.64688	336.18735	371.80756	92.32047	260.23984	324.35254	36.48975	447.66922	415.13538	2.67758	965.91101	-21.14479	9.93127	1955.65491	-11.8066	-14.00936	-4.60406	1.00681	9.24365
215	1.783	351.36087	247.23305	1728.0603	405.27338	150.79582	1622.65466	403.56998	363.26376	1634.45056	239.02199	177.63841	1331.88599	385.78473	15.81947	1346.03333	384.66891	498.366	1365.58301	290.60846	257.22324	985.52106	387.95456	-30.61852	1111.70276	618.31635	21.32809	1156.42126	416.45905	543.57147	1102.35071	620.69159	457.91299	1157.88464	430.99924	56.2784	879.86182				359.49329	80.6213	478.91141	389.74646	134.73021	228.75128	343.81305	123.35787	95.28453	254.62366	164.9234	38.2872	452.38889	83.77427	13.14709	449.319	456.49838	866.88239				380.07816	419.48083	482.25742	410.25159	390.12613	336.86923	336.18735	371.80756	92.32047	259.88281	324.29709	36.56703	448.3663	414.76212	2.92389	965.91101	-21.14479	9.93127	1955.65491	-11.8066	-14.00936	-4.2835	0.95118	8.9866
216	1.792	351.36087	247.23305	1728.0603	405.27338	150.79582	1622.65466	403.69864	363.19595	1634.67456	239.02199	177.63841	1331.88599	385.78473	15.81947	1346.03333	384.66891	498.366	1365.58301	291.30746	257.01932	985.7865	387.95456	-30.61852	1111.70276	618.31635	21.32809	1156.42126	416.24698	543.11194	1101.80054	620.25763	458.98657	1158.48718	431.5441	56.13583	880.28375				359.49329	80.6213	478.91141	389.74646	134.73021	228.75128	343.81305	123.35787	95.28453	255.02554	165.02025	38.16899	452.38889	83.77427	13.14709	449.05316	456.45557	867.27966				380.41687	418.82693	482.16492	410.25159	390.12613	336.86923	336.18735	371.80756	92.32047	260.23984	324.35254	36.48975	447.66922	415.13538	2.67758	965.91101	-21.14479	9.93127	1955.88135	-11.59337	-13.84107	-4.2835	0.95118	8.9866
217	1.8	351.36087	247.23305	1728.0603	405.27338	150.79582	1622.65466	403.56998	363.26376	1634.45056	239.13208	177.77885	1332.19641	386.35596	16.14964	1346.15686	384.66891	498.366	1365.58301	290.60846	257.22324	985.52106	387.95456	-30.61852	1111.70276	618.31635	21.32809	1156.42126	416.0864	543.60382	1102.17627	620.25763	458.98657	1158.48718	431.5441	56.13583	880.28375				359.42065	80.24822	479.06467	389.74646	134.73021	228.75128	343.81305	123.35787	95.28453	255.02554	165.02025	38.16899	452.38889	83.77427	13.14709	448.8219	456.50833	867.03619				380.41687	418.82693	482.16492	409.96976	390.77197	337.3551	336.18735	371.80756	92.32047	260.23984	324.35254	36.48975	447.66922	415.13538	2.67758	965.91101	-21.14479	9.93127	1955.65491	-11.8066	-14.00936	-4.2835	0.95118	8.9866
218	1.808	351.36087	247.23305	1728.0603	405.27338	150.79582	1622.65466	403.69864	363.19595	1634.67456	239.43346	178.23122	1332.27515	386.35596	16.14964	1346.15686	384.66891	498.366	1365.58301	291.13995	257.47604	985.36407	387.95456	-30.61852	1111.70276	618.31635	21.32809	1156.42126	416.45905	543.57147	1102.35071	620.69159	457.91299	1157.88464	430.99924	56.2784	879.86182				359.49329	80.6213	478.91141	389.74646	134.73021	228.75128	343.81305	123.35787	95.28453	255.05458	164.73804	38.36623	452.38889	83.77427	13.14709	449.55029	456.44562	867.12585				380.13541	418.87823	481.87659	410.10056	390.94492	337.13278	336.18735	371.80756	92.32047	259.88281	324.29709	36.56703	448.23346	415.12891	2.60063	965.48572	-21.12002	9.70537	1955.65491	-11.8066	-14.00936	-4.2835	0.95118	8.9866
219	1.817	351.35602	247.28851	1727.90845	406.17966	150.22653	1623.24109	403.69864	363.19595	1634.67456	239.43346	178.23122	1332.27515	386.35596	16.14964	1346.15686	384.66891	498.366	1365.58301	291.46082	256.80002	985.48285	387.95456	-30.61852	1111.70276	618.31635	21.32809	1156.42126	416.0864	543.60382	1102.17627	620.25763	458.98657	1158.48718	431.5441	56.13583	880.28375				359.49329	80.6213	478.91141	389.74646	134.73021	228.75128	343.81305	123.35787	95.28453	255.20558	165.01501	38.75373	452.38889	83.77427	13.14709	449.05316	456.45557	867.27966				379.96771	419.03714	481.59756	410.27164	390.80121	336.97406	336.18735	371.80756	92.32047	260.23984	324.35254	36.48975	447.66922	415.13538	2.67758	965.91101	-21.14479	9.93127	1955.65491	-11.8066	-14.00936	-4.2835	0.95118	8.9866
220	1.825	351.65933	247.65639	1728.07483	405.27338	150.79582	1622.65466	403.69864	363.19595	1634.67456	239.43346	178.23122	1332.27515	386.35596	16.14964	1346.15686	384.66891	498.366	1365.58301	291.28503	257.00598	985.75	387.95456	-30.61852	1111.70276	618.31635	21.32809	1156.42126	416.24698	543.11194	1101.80054	620.69159	457.91299	1157.88464	431.5441	56.13583	880.28375				359.49329	80.6213	478.91141	389.74646	134.73021	228.75128	343.81305	123.35787	95.28453	255.05458	164.73804	38.36623	452.38889	83.77427	13.14709	448.9527	456.49091	866.69116				380.41687	418.82693	482.16492	410.71362	390.9928	337.04645	336.18735	371.80756	92.32047	260.23984	324.35254	36.48975	447.83942	415.06601	3.03345	965.91101	-21.14479	9.93127	1955.65491	-11.8066	-14.00936	-4.2835	0.95118	8.9866
221	1.833	351.40842	247.55779	1727.79663	405.7139	150.5379	1622.89697	403.56998	363.26376	1634.45056	239.43346	178.23122	1332.27515	386.35596	16.14964	1346.15686	384.66891	498.366	1365.58301	290.60846	257.22324	985.52106	387.95456	-30.61852	1111.70276	618.31635	21.32809	1156.42126	416.24698	543.11194	1101.80054	620.69159	457.91299	1157.88464	430.99924	56.2784	879.86182				359.42065	80.24822	479.06467	389.74646	134.73021	228.75128	343.81305	123.35787	95.28453	255.02554	165.02025	38.16899	452.38889	83.77427	13.14709	448.8219	456.50833	867.03619				380.41687	418.82693	482.16492	410.27164	390.80121	336.97406	336.18735	371.80756	92.32047	260.23984	324.35254	36.48975	448.23346	415.12891	2.60063	965.67474	-21.40953	9.74698	1955.65491	-11.8066	-14.00936	-4.2835	0.95118	8.9866
222	1.842	351.92273	247.888	1728.27734	405.74371	150.47363	1623.01917	403.69864	363.19595	1634.67456	239.43346	178.23122	1332.27515	386.35596	16.14964	1346.15686	384.66891	498.366	1365.58301	291.46082	256.80002	985.48285	387.95456	-30.61852	1111.70276	618.31635	21.32809	1156.42126	416.24698	543.11194	1101.80054	620.69159	457.91299	1157.88464	430.99924	56.2784	879.86182				359.49329	80.6213	478.91141	389.74646	134.73021	228.75128	343.81305	123.35787	95.28453	255.05458	164.73804	38.36623	452.38889	83.77427	13.14709	448.8219	456.50833	867.03619				380.13541	418.87823	481.87659	410.25159	390.12613	336.86923	336.18735	371.80756	92.32047	260.23984	324.35254	36.48975	447.66922	415.13538	2.67758	965.91101	-21.14479	9.93127	1955.65491	-11.8066	-14.00936	-4.60406	1.00681	9.24365
223	1.85	351.54462	247.54012	1728.09094	405.27338	150.79582	1622.65466	403.56998	363.26376	1634.45056	239.13208	177.77885	1332.19641	386.35596	16.14964	1346.15686	384.66891	498.366	1365.58301	291.8006	256.73019	985.69647	387.95456	-30.61852	1111.70276	618.31635	21.32809	1156.42126	416.24698	543.11194	1101.80054	620.69159	457.91299	1157.88464	431.5441	56.13583	880.28375				359.49329	80.6213	478.91141	389.74646	134.73021	228.75128	343.81305	123.35787	95.28453	255.05458	164.73804	38.36623	452.38889	83.77427	13.14709	449.05316	456.45557	867.27966				380.13541	418.87823	481.87659	410.25159	390.12613	336.86923	336.18735	371.80756	92.32047	260.23984	324.35254	36.48975	448.3663	414.76212	2.92389	965.91101	-21.14479	9.93127	1955.65491	-11.8066	-14.00936	-4.91227	1.21533	9.17103
224	1.858	351.79068	247.69418	1728.21729	405.74371	150.47363	1623.01917	403.56998	363.26376	1634.45056	239.43346	178.23122	1332.27515	386.35596	16.14964	1346.15686	384.66891	498.366	1365.58301	291.30746	257.01932	985.7865	387.95456	-30.61852	1111.70276	618.31635	21.32809	1156.42126	416.24698	543.11194	1101.80054	620.69159	457.91299	1157.88464	430.99924	56.2784	879.86182				359.49329	80.6213	478.91141	389.74646	134.73021	228.75128	343.81305	123.35787	95.28453	255.02554	165.02025	38.16899	452.38889	83.77427	13.14709	449.05316	456.45557	867.27966				380.24918	418.9859	481.88596	410.25159	390.12613	336.86923	336.18735	371.80756	92.32047	260.23984	324.35254	36.48975	447.66922	415.13538	2.67758	965.91101	-21.14479	9.93127	1956.15808	-11.79542	-13.62272	-4.2835	0.95118	8.9866
225	1.867	351.65933	247.65639	1728.07483	405.74371	150.47363	1623.01917	403.56998	363.26376	1634.45056	239.20232	178.203	1332.00183	386.35596	16.14964	1346.15686	384.66891	498.366	1365.58301	291.46082	256.80002	985.48285	387.95456	-30.61852	1111.70276	618.31635	21.32809	1156.42126	416.24698	543.11194	1101.80054	620.69159	457.91299	1157.88464	430.99924	56.2784	879.86182				359.49329	80.6213	478.91141	389.74646	134.73021	228.75128	343.81305	123.35787	95.28453	255.02554	165.02025	38.16899	452.38889	83.77427	13.14709	448.8219	456.50833	867.03619				380.41687	418.82693	482.16492	410.25159	390.12613	336.86923	336.18735	371.80756	92.32047	260.23984	324.35254	36.48975	447.66922	415.13538	2.67758	965.91101	-21.14479	9.93127	1955.65491	-11.8066	-14.00936	-4.60406	1.00681	9.24365
